<?xml version="1.0" encoding="UTF-8" standalone="no"?> <svg height="512pt" viewBox="0 0 511 512" width="512pt" xmlns="http://www.w3.org/2000/svg"><path d="m211.375 480.636719v31.363281l37.890625-31.363281h152.5l110.527344-207.839844-52.230469-90.464844 27.714844-16-46.890625-17.246093-85.488281-149.085938h-201.304688l-59.738281 104.417969-27.660157-15.96875 8.511719 49.257812-74.707031 129.289063c.058594.121094 106.929688 213.527344 106.984375 213.640625zm172.378906-29.980469h-98.273437l54.414062-45.042969-54.964843-44.886719h105.054687l21.652344 37.5zm-159.539062-271.261719-.035156-.019531 30.664062-53.425781 56.21875 98.046875-8.515625 49.28125 27.710937-16 42.421876 73.472656h-124.457032l-36.847656-30.09375v30.09375h-74.546875l68.183594-118.101562 46.914062-17.253907zm253.808594 94-49.789063 93.625-85.789063-148.589843 11.960938-69.214844 65.921875 24.25zm-139.988282-243.417969 59.058594 103-66.097656-24.3125-11.929688 69.023438-46.9375-81.855469 37.796875-65.855469zm-166.554687 0h103.882812l-90.839843 158.265626-65.96875 24.265624-11.949219-69.136718zm-136.9375 238.019532 48.636719-84.167969 11.964843 69.230469 65.921875-24.246094-58.855468 101.9375h-36.171876zm202.996093 92.730468 55.15625 45.042969-54.226562 44.886719h-112.460938l-44.964843-89.929688zm0 0"/></svg>